<svg xmlns="http://www.w3.org/2000/svg" xmlns:xlink="http://www.w3.org/1999/xlink" width="500" zoomAndPan="magnify" viewBox="0 0 375 374.999991" height="500" preserveAspectRatio="xMidYMid meet" version="1.0"><defs><g/></defs><g fill="#272626" fill-opacity="1"><g transform="translate(106.259599, 260.542308)"><g><path d="M 21.953125 0 L 14.625 0 L 7.0625 -14.59375 L 6.921875 -14.59375 C 6.972656 -14.144531 7.015625 -13.609375 7.046875 -12.984375 C 7.085938 -12.367188 7.125 -11.734375 7.15625 -11.078125 C 7.1875 -10.429688 7.203125 -9.851562 7.203125 -9.34375 L 7.203125 0 L 2.234375 0 L 2.234375 -20.71875 L 9.546875 -20.71875 L 17.09375 -6.3125 L 17.171875 -6.3125 C 17.140625 -6.769531 17.109375 -7.296875 17.078125 -7.890625 C 17.054688 -8.492188 17.03125 -9.101562 17 -9.71875 C 16.976562 -10.332031 16.96875 -10.875 16.96875 -11.34375 L 16.96875 -20.71875 L 21.953125 -20.71875 Z M 21.953125 0 "/></g></g></g><g fill="#272626" fill-opacity="1"><g transform="translate(133.756363, 260.542308)"><g><path d="M 14.953125 0 L 13.921875 -3.875 L 7.203125 -3.875 L 6.15625 0 L 0 0 L 6.765625 -20.796875 L 14.21875 -20.796875 L 21.0625 0 Z M 12.765625 -8.46875 L 11.875 -11.875 C 11.78125 -12.238281 11.640625 -12.765625 11.453125 -13.453125 C 11.273438 -14.140625 11.097656 -14.847656 10.921875 -15.578125 C 10.753906 -16.304688 10.625 -16.910156 10.53125 -17.390625 C 10.445312 -16.910156 10.328125 -16.320312 10.171875 -15.625 C 10.015625 -14.9375 9.851562 -14.25 9.6875 -13.5625 C 9.519531 -12.882812 9.375 -12.320312 9.25 -11.875 L 8.359375 -8.46875 Z M 12.765625 -8.46875 "/></g></g></g><g fill="#272626" fill-opacity="1"><g transform="translate(158.123316, 260.542308)"><g><path d="M 15.78125 -6.296875 C 15.78125 -5.171875 15.492188 -4.101562 14.921875 -3.09375 C 14.359375 -2.09375 13.476562 -1.28125 12.28125 -0.65625 C 11.09375 -0.03125 9.554688 0.28125 7.671875 0.28125 C 6.722656 0.28125 5.890625 0.238281 5.171875 0.15625 C 4.460938 0.0703125 3.800781 -0.0625 3.1875 -0.25 C 2.570312 -0.445312 1.9375 -0.703125 1.28125 -1.015625 L 1.28125 -6 C 2.40625 -5.4375 3.535156 -5.003906 4.671875 -4.703125 C 5.816406 -4.410156 6.851562 -4.265625 7.78125 -4.265625 C 8.332031 -4.265625 8.785156 -4.328125 9.140625 -4.453125 C 9.492188 -4.585938 9.753906 -4.769531 9.921875 -5 C 10.097656 -5.238281 10.1875 -5.507812 10.1875 -5.8125 C 10.1875 -6.164062 10.0625 -6.46875 9.8125 -6.71875 C 9.5625 -6.96875 9.160156 -7.226562 8.609375 -7.5 C 8.066406 -7.78125 7.347656 -8.125 6.453125 -8.53125 C 5.679688 -8.882812 4.984375 -9.25 4.359375 -9.625 C 3.742188 -10.007812 3.21875 -10.441406 2.78125 -10.921875 C 2.34375 -11.410156 2.003906 -11.976562 1.765625 -12.625 C 1.535156 -13.28125 1.421875 -14.054688 1.421875 -14.953125 C 1.421875 -16.273438 1.75 -17.390625 2.40625 -18.296875 C 3.0625 -19.203125 3.972656 -19.878906 5.140625 -20.328125 C 6.316406 -20.785156 7.675781 -21.015625 9.21875 -21.015625 C 10.570312 -21.015625 11.789062 -20.863281 12.875 -20.5625 C 13.957031 -20.257812 14.925781 -19.910156 15.78125 -19.515625 L 14.0625 -15.203125 C 13.175781 -15.609375 12.300781 -15.929688 11.4375 -16.171875 C 10.582031 -16.410156 9.785156 -16.53125 9.046875 -16.53125 C 8.566406 -16.53125 8.171875 -16.46875 7.859375 -16.34375 C 7.554688 -16.226562 7.332031 -16.070312 7.1875 -15.875 C 7.039062 -15.675781 6.96875 -15.453125 6.96875 -15.203125 C 6.96875 -14.878906 7.09375 -14.585938 7.34375 -14.328125 C 7.59375 -14.078125 8.015625 -13.800781 8.609375 -13.5 C 9.203125 -13.207031 10.003906 -12.828125 11.015625 -12.359375 C 12.023438 -11.898438 12.882812 -11.410156 13.59375 -10.890625 C 14.300781 -10.367188 14.84375 -9.738281 15.21875 -9 C 15.59375 -8.269531 15.78125 -7.367188 15.78125 -6.296875 Z M 15.78125 -6.296875 "/></g></g></g><g fill="#272626" fill-opacity="1"><g transform="translate(178.170834, 260.542308)"><g><path d="M 9.03125 -20.71875 C 10.90625 -20.71875 12.460938 -20.488281 13.703125 -20.03125 C 14.953125 -19.570312 15.890625 -18.890625 16.515625 -17.984375 C 17.148438 -17.078125 17.46875 -15.945312 17.46875 -14.59375 C 17.46875 -13.75 17.328125 -12.984375 17.046875 -12.296875 C 16.765625 -11.609375 16.359375 -10.992188 15.828125 -10.453125 C 15.304688 -9.910156 14.679688 -9.4375 13.953125 -9.03125 L 19.984375 0 L 13.640625 0 L 9.25 -7.53125 L 7.828125 -7.53125 L 7.828125 0 L 2.234375 0 L 2.234375 -20.71875 Z M 8.9375 -16.484375 L 7.828125 -16.484375 L 7.828125 -11.75 L 8.890625 -11.75 C 9.742188 -11.75 10.441406 -11.9375 10.984375 -12.3125 C 11.535156 -12.6875 11.8125 -13.363281 11.8125 -14.34375 C 11.8125 -15.007812 11.582031 -15.53125 11.125 -15.90625 C 10.675781 -16.289062 9.945312 -16.484375 8.9375 -16.484375 Z M 8.9375 -16.484375 "/></g></g></g><g fill="#272626" fill-opacity="1"><g transform="translate(201.107414, 260.542308)"><g><path d="M 17 0 L 0.859375 0 L 0.859375 -3.453125 L 9.828125 -16.1875 L 1.078125 -16.1875 L 1.078125 -20.71875 L 16.78125 -20.71875 L 16.78125 -17.265625 L 7.8125 -4.515625 L 17 -4.515625 Z M 17 0 "/></g></g></g><g fill="#272626" fill-opacity="1"><g transform="translate(222.132121, 260.542308)"><g><path d="M 14.953125 0 L 13.921875 -3.875 L 7.203125 -3.875 L 6.15625 0 L 0 0 L 6.765625 -20.796875 L 14.21875 -20.796875 L 21.0625 0 Z M 12.765625 -8.46875 L 11.875 -11.875 C 11.78125 -12.238281 11.640625 -12.765625 11.453125 -13.453125 C 11.273438 -14.140625 11.097656 -14.847656 10.921875 -15.578125 C 10.753906 -16.304688 10.625 -16.910156 10.53125 -17.390625 C 10.445312 -16.910156 10.328125 -16.320312 10.171875 -15.625 C 10.015625 -14.9375 9.851562 -14.25 9.6875 -13.5625 C 9.519531 -12.882812 9.375 -12.320312 9.25 -11.875 L 8.359375 -8.46875 Z M 12.765625 -8.46875 "/></g></g></g><g fill="#272626" fill-opacity="1"><g transform="translate(246.499074, 260.542308)"><g><path d="M 19.984375 0 L 14.359375 0 L 14.359375 -8.4375 L 7.859375 -8.4375 L 7.859375 0 L 2.234375 0 L 2.234375 -20.71875 L 7.859375 -20.71875 L 7.859375 -13.03125 L 14.359375 -13.03125 L 14.359375 -20.71875 L 19.984375 -20.71875 Z M 19.984375 0 "/></g></g></g><g fill="#272626" fill-opacity="1"><g transform="translate(69.164011, 275.808966)"><g><path d="M 6.609375 0 L 4.75 0 L 4.75 -2.796875 L 2.59375 -2.796875 L 2.59375 0 L 0.734375 0 L 0.734375 -6.84375 L 2.59375 -6.84375 L 2.59375 -4.3125 L 4.75 -4.3125 L 4.75 -6.84375 L 6.609375 -6.84375 Z M 6.609375 0 "/></g></g></g><g fill="#272626" fill-opacity="1"><g transform="translate(83.258689, 275.808966)"><g><path d="M 4.9375 0 L 4.609375 -1.28125 L 2.375 -1.28125 L 2.03125 0 L 0 0 L 2.234375 -6.875 L 4.703125 -6.875 L 6.96875 0 Z M 4.21875 -2.796875 L 3.921875 -3.921875 C 3.890625 -4.046875 3.84375 -4.21875 3.78125 -4.4375 C 3.726562 -4.664062 3.671875 -4.898438 3.609375 -5.140625 C 3.554688 -5.390625 3.515625 -5.59375 3.484375 -5.75 C 3.453125 -5.59375 3.410156 -5.398438 3.359375 -5.171875 C 3.304688 -4.941406 3.253906 -4.710938 3.203125 -4.484375 C 3.148438 -4.265625 3.101562 -4.078125 3.0625 -3.921875 L 2.765625 -2.796875 Z M 4.21875 -2.796875 "/></g></g></g><g fill="#272626" fill-opacity="1"><g transform="translate(96.969084, 275.808966)"><g><path d="M 3.71875 0 L 2.328125 -4.9375 L 2.28125 -4.9375 C 2.289062 -4.800781 2.300781 -4.625 2.3125 -4.40625 C 2.332031 -4.1875 2.347656 -3.953125 2.359375 -3.703125 C 2.367188 -3.453125 2.375 -3.207031 2.375 -2.96875 L 2.375 0 L 0.734375 0 L 0.734375 -6.84375 L 3.203125 -6.84375 L 4.640625 -1.984375 L 4.671875 -1.984375 L 6.078125 -6.84375 L 8.546875 -6.84375 L 8.546875 0 L 6.84375 0 L 6.84375 -3 C 6.84375 -3.21875 6.84375 -3.453125 6.84375 -3.703125 C 6.851562 -3.953125 6.863281 -4.1875 6.875 -4.40625 C 6.882812 -4.625 6.894531 -4.796875 6.90625 -4.921875 L 6.875 -4.921875 L 5.484375 0 Z M 3.71875 0 "/></g></g></g><g fill="#272626" fill-opacity="1"><g transform="translate(112.989848, 275.808966)"><g><path d="M 5.625 0 L 0.28125 0 L 0.28125 -1.140625 L 3.25 -5.359375 L 0.359375 -5.359375 L 0.359375 -6.84375 L 5.546875 -6.84375 L 5.546875 -5.703125 L 2.578125 -1.5 L 5.625 -1.5 Z M 5.625 0 "/></g></g></g><g fill="#272626" fill-opacity="1"><g transform="translate(125.594264, 275.808966)"><g><path d="M 4.9375 0 L 4.609375 -1.28125 L 2.375 -1.28125 L 2.03125 0 L 0 0 L 2.234375 -6.875 L 4.703125 -6.875 L 6.96875 0 Z M 4.21875 -2.796875 L 3.921875 -3.921875 C 3.890625 -4.046875 3.84375 -4.21875 3.78125 -4.4375 C 3.726562 -4.664062 3.671875 -4.898438 3.609375 -5.140625 C 3.554688 -5.390625 3.515625 -5.59375 3.484375 -5.75 C 3.453125 -5.59375 3.410156 -5.398438 3.359375 -5.171875 C 3.304688 -4.941406 3.253906 -4.710938 3.203125 -4.484375 C 3.148438 -4.265625 3.101562 -4.078125 3.0625 -3.921875 L 2.765625 -2.796875 Z M 4.21875 -2.796875 "/></g></g></g><g fill="#272626" fill-opacity="1"><g transform="translate(139.304662, 275.808966)"><g><path d="M 6.609375 0 L 4.75 0 L 4.75 -2.796875 L 2.59375 -2.796875 L 2.59375 0 L 0.734375 0 L 0.734375 -6.84375 L 2.59375 -6.84375 L 2.59375 -4.3125 L 4.75 -4.3125 L 4.75 -6.84375 L 6.609375 -6.84375 Z M 6.609375 0 "/></g></g></g><g fill="#272626" fill-opacity="1"><g transform="translate(153.399342, 275.808966)"><g/></g></g><g fill="#272626" fill-opacity="1"><g transform="translate(162.634266, 275.808966)"><g><path d="M 5.21875 -2.078125 C 5.21875 -1.703125 5.125 -1.347656 4.9375 -1.015625 C 4.75 -0.691406 4.457031 -0.425781 4.0625 -0.21875 C 3.664062 -0.0078125 3.15625 0.09375 2.53125 0.09375 C 2.21875 0.09375 1.941406 0.078125 1.703125 0.046875 C 1.472656 0.0234375 1.253906 -0.015625 1.046875 -0.078125 C 0.847656 -0.148438 0.640625 -0.238281 0.421875 -0.34375 L 0.421875 -1.984375 C 0.796875 -1.796875 1.171875 -1.648438 1.546875 -1.546875 C 1.921875 -1.453125 2.265625 -1.40625 2.578125 -1.40625 C 2.753906 -1.40625 2.898438 -1.425781 3.015625 -1.46875 C 3.140625 -1.519531 3.226562 -1.582031 3.28125 -1.65625 C 3.34375 -1.726562 3.375 -1.816406 3.375 -1.921875 C 3.375 -2.035156 3.332031 -2.132812 3.25 -2.21875 C 3.164062 -2.300781 3.03125 -2.390625 2.84375 -2.484375 C 2.664062 -2.578125 2.425781 -2.6875 2.125 -2.8125 C 1.875 -2.9375 1.644531 -3.0625 1.4375 -3.1875 C 1.238281 -3.3125 1.066406 -3.453125 0.921875 -3.609375 C 0.773438 -3.773438 0.660156 -3.960938 0.578125 -4.171875 C 0.503906 -4.390625 0.46875 -4.644531 0.46875 -4.9375 C 0.46875 -5.382812 0.578125 -5.753906 0.796875 -6.046875 C 1.015625 -6.347656 1.316406 -6.570312 1.703125 -6.71875 C 2.085938 -6.875 2.535156 -6.953125 3.046875 -6.953125 C 3.492188 -6.953125 3.894531 -6.898438 4.25 -6.796875 C 4.613281 -6.691406 4.9375 -6.578125 5.21875 -6.453125 L 4.65625 -5.03125 C 4.363281 -5.164062 4.070312 -5.269531 3.78125 -5.34375 C 3.5 -5.425781 3.238281 -5.46875 3 -5.46875 C 2.832031 -5.46875 2.695312 -5.445312 2.59375 -5.40625 C 2.5 -5.363281 2.425781 -5.3125 2.375 -5.25 C 2.332031 -5.1875 2.3125 -5.113281 2.3125 -5.03125 C 2.3125 -4.914062 2.347656 -4.816406 2.421875 -4.734375 C 2.503906 -4.648438 2.644531 -4.554688 2.84375 -4.453125 C 3.039062 -4.359375 3.304688 -4.234375 3.640625 -4.078125 C 3.972656 -3.929688 4.253906 -3.769531 4.484375 -3.59375 C 4.722656 -3.425781 4.90625 -3.21875 5.03125 -2.96875 C 5.15625 -2.726562 5.21875 -2.429688 5.21875 -2.078125 Z M 5.21875 -2.078125 "/></g></g></g><g fill="#272626" fill-opacity="1"><g transform="translate(174.915321, 275.808966)"><g><path d="M 7.15625 -3.4375 C 7.15625 -2.90625 7.085938 -2.421875 6.953125 -1.984375 C 6.828125 -1.554688 6.628906 -1.1875 6.359375 -0.875 C 6.097656 -0.5625 5.753906 -0.320312 5.328125 -0.15625 C 4.910156 0.0078125 4.40625 0.09375 3.8125 0.09375 C 3.238281 0.09375 2.742188 0.0078125 2.328125 -0.15625 C 1.910156 -0.320312 1.5625 -0.5625 1.28125 -0.875 C 1.007812 -1.1875 0.804688 -1.554688 0.671875 -1.984375 C 0.546875 -2.421875 0.484375 -2.90625 0.484375 -3.4375 C 0.484375 -4.15625 0.597656 -4.773438 0.828125 -5.296875 C 1.066406 -5.828125 1.429688 -6.234375 1.921875 -6.515625 C 2.421875 -6.804688 3.054688 -6.953125 3.828125 -6.953125 C 4.609375 -6.953125 5.242188 -6.804688 5.734375 -6.515625 C 6.222656 -6.222656 6.582031 -5.8125 6.8125 -5.28125 C 7.039062 -4.757812 7.15625 -4.144531 7.15625 -3.4375 Z M 2.4375 -3.4375 C 2.4375 -3.019531 2.484375 -2.660156 2.578125 -2.359375 C 2.671875 -2.066406 2.816406 -1.84375 3.015625 -1.6875 C 3.222656 -1.53125 3.488281 -1.453125 3.8125 -1.453125 C 4.15625 -1.453125 4.425781 -1.53125 4.625 -1.6875 C 4.832031 -1.84375 4.976562 -2.066406 5.0625 -2.359375 C 5.15625 -2.660156 5.203125 -3.019531 5.203125 -3.4375 C 5.203125 -4.050781 5.097656 -4.535156 4.890625 -4.890625 C 4.679688 -5.253906 4.328125 -5.4375 3.828125 -5.4375 C 3.492188 -5.4375 3.222656 -5.351562 3.015625 -5.1875 C 2.816406 -5.03125 2.671875 -4.800781 2.578125 -4.5 C 2.484375 -4.195312 2.4375 -3.84375 2.4375 -3.4375 Z M 2.4375 -3.4375 "/></g></g></g><g fill="#272626" fill-opacity="1"><g transform="translate(189.305235, 275.808966)"><g><path d="M 5.21875 -2.078125 C 5.21875 -1.703125 5.125 -1.347656 4.9375 -1.015625 C 4.75 -0.691406 4.457031 -0.425781 4.0625 -0.21875 C 3.664062 -0.0078125 3.15625 0.09375 2.53125 0.09375 C 2.21875 0.09375 1.941406 0.078125 1.703125 0.046875 C 1.472656 0.0234375 1.253906 -0.015625 1.046875 -0.078125 C 0.847656 -0.148438 0.640625 -0.238281 0.421875 -0.34375 L 0.421875 -1.984375 C 0.796875 -1.796875 1.171875 -1.648438 1.546875 -1.546875 C 1.921875 -1.453125 2.265625 -1.40625 2.578125 -1.40625 C 2.753906 -1.40625 2.898438 -1.425781 3.015625 -1.46875 C 3.140625 -1.519531 3.226562 -1.582031 3.28125 -1.65625 C 3.34375 -1.726562 3.375 -1.816406 3.375 -1.921875 C 3.375 -2.035156 3.332031 -2.132812 3.25 -2.21875 C 3.164062 -2.300781 3.03125 -2.390625 2.84375 -2.484375 C 2.664062 -2.578125 2.425781 -2.6875 2.125 -2.8125 C 1.875 -2.9375 1.644531 -3.0625 1.4375 -3.1875 C 1.238281 -3.3125 1.066406 -3.453125 0.921875 -3.609375 C 0.773438 -3.773438 0.660156 -3.960938 0.578125 -4.171875 C 0.503906 -4.390625 0.46875 -4.644531 0.46875 -4.9375 C 0.46875 -5.382812 0.578125 -5.753906 0.796875 -6.046875 C 1.015625 -6.347656 1.316406 -6.570312 1.703125 -6.71875 C 2.085938 -6.875 2.535156 -6.953125 3.046875 -6.953125 C 3.492188 -6.953125 3.894531 -6.898438 4.25 -6.796875 C 4.613281 -6.691406 4.9375 -6.578125 5.21875 -6.453125 L 4.65625 -5.03125 C 4.363281 -5.164062 4.070312 -5.269531 3.78125 -5.34375 C 3.5 -5.425781 3.238281 -5.46875 3 -5.46875 C 2.832031 -5.46875 2.695312 -5.445312 2.59375 -5.40625 C 2.5 -5.363281 2.425781 -5.3125 2.375 -5.25 C 2.332031 -5.1875 2.3125 -5.113281 2.3125 -5.03125 C 2.3125 -4.914062 2.347656 -4.816406 2.421875 -4.734375 C 2.503906 -4.648438 2.644531 -4.554688 2.84375 -4.453125 C 3.039062 -4.359375 3.304688 -4.234375 3.640625 -4.078125 C 3.972656 -3.929688 4.253906 -3.769531 4.484375 -3.59375 C 4.722656 -3.425781 4.90625 -3.21875 5.03125 -2.96875 C 5.15625 -2.726562 5.21875 -2.429688 5.21875 -2.078125 Z M 5.21875 -2.078125 "/></g></g></g><g fill="#272626" fill-opacity="1"><g transform="translate(201.58629, 275.808966)"><g><path d="M 0.734375 0 L 0.734375 -6.84375 L 2.59375 -6.84375 L 2.59375 0 Z M 0.734375 0 "/></g></g></g><g fill="#272626" fill-opacity="1"><g transform="translate(211.66945, 275.808966)"><g><path d="M 4.9375 0 L 4.609375 -1.28125 L 2.375 -1.28125 L 2.03125 0 L 0 0 L 2.234375 -6.875 L 4.703125 -6.875 L 6.96875 0 Z M 4.21875 -2.796875 L 3.921875 -3.921875 C 3.890625 -4.046875 3.84375 -4.21875 3.78125 -4.4375 C 3.726562 -4.664062 3.671875 -4.898438 3.609375 -5.140625 C 3.554688 -5.390625 3.515625 -5.59375 3.484375 -5.75 C 3.453125 -5.59375 3.410156 -5.398438 3.359375 -5.171875 C 3.304688 -4.941406 3.253906 -4.710938 3.203125 -4.484375 C 3.148438 -4.265625 3.101562 -4.078125 3.0625 -3.921875 L 2.765625 -2.796875 Z M 4.21875 -2.796875 "/></g></g></g><g fill="#272626" fill-opacity="1"><g transform="translate(225.379849, 275.808966)"><g><path d="M 0.734375 0 L 0.734375 -6.84375 L 2.59375 -6.84375 L 2.59375 -1.5 L 5.234375 -1.5 L 5.234375 0 Z M 0.734375 0 "/></g></g></g><g fill="#272626" fill-opacity="1"><g transform="translate(237.707767, 275.808966)"><g/></g></g><g fill="#272626" fill-opacity="1"><g transform="translate(246.94269, 275.808966)"><g><path d="M 3.71875 0 L 2.328125 -4.9375 L 2.28125 -4.9375 C 2.289062 -4.800781 2.300781 -4.625 2.3125 -4.40625 C 2.332031 -4.1875 2.347656 -3.953125 2.359375 -3.703125 C 2.367188 -3.453125 2.375 -3.207031 2.375 -2.96875 L 2.375 0 L 0.734375 0 L 0.734375 -6.84375 L 3.203125 -6.84375 L 4.640625 -1.984375 L 4.671875 -1.984375 L 6.078125 -6.84375 L 8.546875 -6.84375 L 8.546875 0 L 6.84375 0 L 6.84375 -3 C 6.84375 -3.21875 6.84375 -3.453125 6.84375 -3.703125 C 6.851562 -3.953125 6.863281 -4.1875 6.875 -4.40625 C 6.882812 -4.625 6.894531 -4.796875 6.90625 -4.921875 L 6.875 -4.921875 L 5.484375 0 Z M 3.71875 0 "/></g></g></g><g fill="#272626" fill-opacity="1"><g transform="translate(262.963445, 275.808966)"><g><path d="M 4.8125 0 L 0.734375 0 L 0.734375 -6.84375 L 4.8125 -6.84375 L 4.8125 -5.359375 L 2.59375 -5.359375 L 2.59375 -4.28125 L 4.640625 -4.28125 L 4.640625 -2.796875 L 2.59375 -2.796875 L 2.59375 -1.515625 L 4.8125 -1.515625 Z M 4.8125 0 "/></g></g></g><g fill="#272626" fill-opacity="1"><g transform="translate(274.972691, 275.808966)"><g><path d="M 6.546875 -3.5625 C 6.546875 -2.769531 6.394531 -2.109375 6.09375 -1.578125 C 5.800781 -1.054688 5.382812 -0.660156 4.84375 -0.390625 C 4.3125 -0.128906 3.679688 0 2.953125 0 L 0.734375 0 L 0.734375 -6.84375 L 3.109375 -6.84375 C 3.847656 -6.84375 4.472656 -6.71875 4.984375 -6.46875 C 5.492188 -6.21875 5.878906 -5.847656 6.140625 -5.359375 C 6.410156 -4.867188 6.546875 -4.269531 6.546875 -3.5625 Z M 4.640625 -3.5 C 4.640625 -3.914062 4.582031 -4.257812 4.46875 -4.53125 C 4.351562 -4.8125 4.1875 -5.019531 3.96875 -5.15625 C 3.75 -5.289062 3.46875 -5.359375 3.125 -5.359375 L 2.59375 -5.359375 L 2.59375 -1.515625 L 3 -1.515625 C 3.5625 -1.515625 3.972656 -1.675781 4.234375 -2 C 4.503906 -2.332031 4.640625 -2.832031 4.640625 -3.5 Z M 4.640625 -3.5 "/></g></g></g><g fill="#272626" fill-opacity="1"><g transform="translate(288.75806, 275.808966)"><g><path d="M 0.734375 0 L 0.734375 -6.84375 L 2.59375 -6.84375 L 2.59375 0 Z M 0.734375 0 "/></g></g></g><g fill="#272626" fill-opacity="1"><g transform="translate(298.84122, 275.808966)"><g><path d="M 4.9375 0 L 4.609375 -1.28125 L 2.375 -1.28125 L 2.03125 0 L 0 0 L 2.234375 -6.875 L 4.703125 -6.875 L 6.96875 0 Z M 4.21875 -2.796875 L 3.921875 -3.921875 C 3.890625 -4.046875 3.84375 -4.21875 3.78125 -4.4375 C 3.726562 -4.664062 3.671875 -4.898438 3.609375 -5.140625 C 3.554688 -5.390625 3.515625 -5.59375 3.484375 -5.75 C 3.453125 -5.59375 3.410156 -5.398438 3.359375 -5.171875 C 3.304688 -4.941406 3.253906 -4.710938 3.203125 -4.484375 C 3.148438 -4.265625 3.101562 -4.078125 3.0625 -3.921875 L 2.765625 -2.796875 Z M 4.21875 -2.796875 "/></g></g></g><g fill="#343434" fill-opacity="1"><g transform="translate(126.452163, 221.822901)"><g><path d="M 5.25 0 L 5.25 -1.875 L 9.734375 -1.875 C 13.734375 -1.875 16.320312 -2.742188 17.5 -4.484375 C 18.6875 -6.234375 19.28125 -10.046875 19.28125 -15.921875 L 19.28125 -117.78125 C 19.28125 -123.644531 18.6875 -127.453125 17.5 -129.203125 C 16.320312 -130.953125 13.734375 -131.828125 9.734375 -131.828125 L 5.25 -131.828125 L 5.25 -133.703125 L 47.1875 -133.703125 C 61.664062 -133.703125 71.835938 -130.640625 77.703125 -124.515625 C 83.578125 -118.398438 86.515625 -109.726562 86.515625 -98.5 C 86.515625 -88.257812 84.484375 -80.234375 80.421875 -74.421875 C 76.367188 -68.617188 70.535156 -64.597656 62.921875 -62.359375 L 84.078125 -21.34375 C 87.191406 -15.476562 89.625 -11.171875 91.375 -8.421875 C 93.125 -5.679688 94.59375 -3.90625 95.78125 -3.09375 C 96.96875 -2.28125 98.1875 -1.875 99.4375 -1.875 L 100.171875 -1.875 L 100.171875 0 L 96.625 0 C 89.382812 0 83.671875 -1.179688 79.484375 -3.546875 C 75.304688 -5.921875 71.53125 -10.601562 68.15625 -17.59375 L 47.1875 -61.046875 L 35.953125 -61.046875 L 35.953125 -15.921875 C 35.953125 -10.046875 36.515625 -6.234375 37.640625 -4.484375 C 38.765625 -2.742188 41.257812 -1.875 45.125 -1.875 L 49.4375 -1.875 L 49.4375 0 Z M 35.953125 -62.921875 L 45.5 -62.921875 C 53.988281 -62.921875 60.039062 -65.789062 63.65625 -71.53125 C 67.28125 -77.269531 69.09375 -86.195312 69.09375 -98.3125 C 69.09375 -109.914062 67.375 -118.398438 63.9375 -123.765625 C 60.507812 -129.140625 54.488281 -131.828125 45.875 -131.828125 L 35.953125 -131.828125 Z M 35.953125 -62.921875 "/></g></g></g><g fill="#272626" fill-opacity="1"><g transform="translate(110.68352, 222.225481)"><g><path d="M 127.984375 -120.734375 C 127.722656 -112.515625 127.59375 -104.195312 127.59375 -95.78125 C 127.59375 -87.375 127.59375 -78.863281 127.59375 -70.25 L 127.59375 -60.65625 C 127.59375 -52.175781 127.59375 -43.757812 127.59375 -35.40625 C 127.59375 -27.0625 127.722656 -18.648438 127.984375 -10.171875 L 145.984375 -8.015625 L 145.984375 0 L 90.796875 0 L 90.796875 -8.015625 L 108.796875 -10.171875 C 109.054688 -18.265625 109.1875 -26.550781 109.1875 -35.03125 C 109.1875 -43.507812 109.1875 -52.640625 109.1875 -62.421875 L 45.40625 -62.421875 C 45.40625 -52.765625 45.40625 -43.695312 45.40625 -35.21875 C 45.40625 -26.738281 45.535156 -18.390625 45.796875 -10.171875 L 63.984375 -8.015625 L 63.984375 0 L 8.609375 0 L 8.609375 -8.015625 L 26.609375 -10.171875 C 26.867188 -18.390625 27 -26.707031 27 -35.125 C 27 -43.539062 27 -52.050781 27 -60.65625 L 27 -70.25 C 27 -78.726562 27 -87.140625 27 -95.484375 C 27 -103.835938 26.867188 -112.253906 26.609375 -120.734375 L 8.609375 -122.890625 L 8.609375 -130.921875 L 63.984375 -130.921875 L 63.984375 -122.890625 L 45.796875 -120.734375 C 45.535156 -112.648438 45.40625 -104.53125 45.40625 -96.375 C 45.40625 -88.21875 45.40625 -79.96875 45.40625 -71.625 L 109.1875 -71.625 C 109.1875 -79.84375 109.1875 -88.023438 109.1875 -96.171875 C 109.1875 -104.328125 109.054688 -112.515625 108.796875 -120.734375 L 90.796875 -122.890625 L 90.796875 -130.921875 L 145.984375 -130.921875 L 145.984375 -122.890625 Z M 127.984375 -120.734375 "/></g></g></g><g fill="#a6a6a6" fill-opacity="1"><g transform="translate(121.802574, 222.024661)"><g><path d="M 5.25 0 L 5.25 -1.875 L 9.734375 -1.875 C 13.734375 -1.875 16.320312 -2.742188 17.5 -4.484375 C 18.6875 -6.234375 19.28125 -10.046875 19.28125 -15.921875 L 19.28125 -117.78125 C 19.28125 -123.644531 18.6875 -127.453125 17.5 -129.203125 C 16.320312 -130.953125 13.734375 -131.828125 9.734375 -131.828125 L 5.25 -131.828125 L 5.25 -133.703125 L 47.1875 -133.703125 C 61.664062 -133.703125 71.835938 -130.640625 77.703125 -124.515625 C 83.578125 -118.398438 86.515625 -109.726562 86.515625 -98.5 C 86.515625 -88.257812 84.484375 -80.234375 80.421875 -74.421875 C 76.367188 -68.617188 70.535156 -64.597656 62.921875 -62.359375 L 84.078125 -21.34375 C 87.191406 -15.476562 89.625 -11.171875 91.375 -8.421875 C 93.125 -5.679688 94.59375 -3.90625 95.78125 -3.09375 C 96.96875 -2.28125 98.1875 -1.875 99.4375 -1.875 L 100.171875 -1.875 L 100.171875 0 L 96.625 0 C 89.382812 0 83.671875 -1.179688 79.484375 -3.546875 C 75.304688 -5.921875 71.53125 -10.601562 68.15625 -17.59375 L 47.1875 -61.046875 L 35.953125 -61.046875 L 35.953125 -15.921875 C 35.953125 -10.046875 36.515625 -6.234375 37.640625 -4.484375 C 38.765625 -2.742188 41.257812 -1.875 45.125 -1.875 L 49.4375 -1.875 L 49.4375 0 Z M 35.953125 -62.921875 L 45.5 -62.921875 C 53.988281 -62.921875 60.039062 -65.789062 63.65625 -71.53125 C 67.28125 -77.269531 69.09375 -86.195312 69.09375 -98.3125 C 69.09375 -109.914062 67.375 -118.398438 63.9375 -123.765625 C 60.507812 -129.140625 54.488281 -131.828125 45.875 -131.828125 L 35.953125 -131.828125 Z M 35.953125 -62.921875 "/></g></g></g></svg>